<svg xmlns="http://www.w3.org/2000/svg" xmlns:xlink="http://www.w3.org/1999/xlink" version="1.1" id="Capa_1" x="0px" y="0px" viewBox="0 0 512.001 512.001" style="enable-background:new 0 0 512.001 512.001;" xml:space="preserve">
    <path d="M252.338,131.366c-17.678,0-32.06,14.382-32.06,32.06s14.381,32.06,32.06,32.06c17.679,0,32.06-14.382,32.06-32.06    S270.016,131.366,252.338,131.366z M252.338,180.086c-9.188,0-16.661-7.474-16.661-16.661s7.473-16.661,16.661-16.661    c9.187,0,16.661,7.474,16.661,16.661S261.525,180.086,252.338,180.086z" fill="#FFFFFF"/>
    <path d="M271.207,23.174h-37.736c-4.252,0-7.699,3.447-7.699,7.699v37.736c0,4.252,3.447,7.699,7.699,7.699h37.736    c4.253,0,7.699-3.447,7.699-7.699V30.873C278.906,26.621,275.46,23.174,271.207,23.174z M263.507,60.91H241.17V38.573h22.337    V60.91z" fill="#FFFFFF"/>
    <path d="M435.079,74.177C387.245,26.343,323.646,0,255.999,0c-30.449,0-60.227,5.348-88.507,15.899    c-3.984,1.486-6.01,5.92-4.523,9.904c1.486,3.985,5.923,6.011,9.904,4.523c26.553-9.905,54.521-14.927,83.126-14.927    c131.155,0,237.858,106.702,237.858,237.858c0,98.327-57.451,183.93-145.244,220.026c11.251-13.355,16.289-31.391,12.717-49.464    l-11.811-59.282h88.317c4.253,0,7.699-3.447,7.699-7.699v-29.612c0-4.252-3.446-7.699-7.699-7.699h-97.286l-7.09-35.584    c-0.832-4.17-4.878-6.88-9.055-6.047c-4.17,0.832-6.877,4.885-6.047,9.055l27.867,139.864c3.24,16.402-3.104,32.773-15.789,42.734    l-45.367-229.676c7.771-3.341,14.925-7.84,21.267-13.267l6.156,30.898c0.73,3.663,3.946,6.196,7.543,6.196    c0.498,0,1.005-0.048,1.513-0.15c4.17-0.831,6.877-4.885,6.047-9.055l-8.322-41.771c10.195-13.805,16.236-30.858,16.236-49.298    c0-45.86-37.311-83.171-83.171-83.171c-45.86,0-83.171,37.31-83.171,83.171c0,21.169,7.962,40.506,21.034,55.202l-19.81,100.899    h-33.428c-4.252,0-7.699,3.447-7.699,7.699s3.447,7.699,7.699,7.699h30.405l-2.79,14.213H81.861v-14.213h21.859    c4.252,0,7.699-3.447,7.699-7.699s-3.447-7.699-7.699-7.699H74.161c-4.252,0-7.699,3.447-7.699,7.699v29.612    c0,4.252,3.447,7.699,7.699,7.699h87.391l-11.641,59.294c-3.469,17.56,1.185,35.095,11.781,48.326    c-86.874-36.835-143.55-121.686-143.55-218.901c0-83.96,52.571-173.753,122.285-208.868c3.797-1.912,5.326-6.542,3.412-10.34    c-1.913-3.797-6.542-5.325-10.34-3.412C58.956,68.183,2.744,163.889,2.744,253.256c0,55.815,17.571,108.678,50.814,152.874    c30.858,41.025,74.263,72.043,122.798,87.925l-1.515,8.962c-0.708,4.193,2.116,8.166,6.308,8.875    c0.434,0.074,0.866,0.109,1.292,0.109c3.689,0,6.948-2.659,7.582-6.417l2.408-14.248c0.047-0.133,0.112-0.256,0.152-0.392    c0.233-0.787,0.331-1.582,0.313-2.361l0.904-5.348l23.42-118.565h17.973v10.986c0,4.252,3.447,7.699,7.699,7.699h25.458    c4.253,0,7.699-3.447,7.699-7.699v-10.854h18.001l23.413,118.53c0.23,1.165,0.724,2.245,1.425,3.167l3.226,19.085    c0.635,3.758,3.895,6.417,7.583,6.417c0.426,0,0.858-0.035,1.292-0.109c4.193-0.708,7.017-4.682,6.309-8.875l-1.467-8.681    c49.417-15.917,91.917-46.345,123.185-88.29c32.867-44.087,50.239-96.921,50.239-152.79    C509.257,185.609,482.913,122.012,435.079,74.177z M184.566,163.426c0-37.37,30.403-67.773,67.773-67.773    s67.773,30.402,67.773,67.773s-30.402,67.773-67.773,67.773S184.566,200.796,184.566,163.426z M209.23,325.656    c-0.003,0.014-0.005,0.028-0.008,0.042l-28.415,143.851c-12.683-9.961-19.028-26.334-15.787-42.742l38.501-196.104    c6.713,4.884,14.18,8.782,22.194,11.498L209.23,325.656z M235.194,349.27h-14.932l2.833-14.345h12.098V349.27z M260.653,367.956    h-10.059v-51.847h10.059V367.956z M268.353,300.709h-25.458c-4.252,0-7.699,3.447-7.699,7.699v11.118h-9.056l14.57-73.761    c3.803,0.535,7.682,0.831,11.63,0.831c6.172,0,12.181-0.696,17.974-1.978l14.796,74.908h-9.057v-11.118    C276.052,304.156,272.606,300.709,268.353,300.709z M276.052,349.403v-14.478h11.824c0.092,0,0.182-0.01,0.273-0.013l2.862,14.491    H276.052z M346.451,349.139l-2.832-14.213h86.519v14.213H346.451z" fill="#FFFFFF"/>
  </svg>