<svg xmlns="http://www.w3.org/2000/svg" xmlns:xlink="http://www.w3.org/1999/xlink" version="1.1" id="Capa_1" x="0px" y="0px" viewBox="0 0 490.667 490.667" style="enable-background:new 0 0 490.667 490.667;" xml:space="preserve">
	<path d="M42.667,341.333C19.136,341.333,0,360.469,0,384s19.136,42.667,42.667,42.667c23.531,0,42.667-19.136,42.667-42.667    S66.197,341.333,42.667,341.333z M42.667,405.333c-11.755,0-21.333-9.579-21.333-21.333s9.579-21.333,21.333-21.333    C54.421,362.667,64,372.245,64,384S54.421,405.333,42.667,405.333z" fill="#FFFFFF"/>
	<path d="M384,0c-23.531,0-42.667,19.136-42.667,42.667c0,23.531,19.136,42.667,42.667,42.667s42.667-19.136,42.667-42.667    C426.667,19.136,407.531,0,384,0z M384,64c-11.755,0-21.333-9.579-21.333-21.333c0-11.755,9.579-21.333,21.333-21.333    s21.333,9.579,21.333,21.333C405.333,54.421,395.755,64,384,64z" fill="#FFFFFF"/>
	<path d="M359.531,67.136c-4.16-4.16-10.923-4.16-15.083,0L67.115,344.469c-4.16,4.16-4.16,10.923,0,15.083    c2.091,2.069,4.821,3.115,7.552,3.115c2.731,0,5.461-1.045,7.531-3.115L359.531,82.219    C363.691,78.059,363.691,71.296,359.531,67.136z" fill="#FFFFFF"/>
	<circle cx="213.333" cy="213.333" r="21.333" fill="#FFFFFF"/>
	<path d="M181.333,426.667h-42.667c-5.888,0-10.667,4.779-10.667,10.667V480c0,5.888,4.779,10.667,10.667,10.667h42.667    c5.888,0,10.667-4.779,10.667-10.667v-42.667C192,431.445,187.221,426.667,181.333,426.667z M170.667,469.333h-21.333V448h21.333    V469.333z" fill="#FFFFFF"/>
	<path d="M480,128h-42.667c-5.888,0-10.667,4.779-10.667,10.667v42.667c0,5.888,4.779,10.667,10.667,10.667H480    c5.888,0,10.667-4.779,10.667-10.667v-42.667C490.667,132.779,485.888,128,480,128z M469.333,170.667H448v-21.333h21.333V170.667z    " fill="#FFFFFF"/>
	<path d="M437.333,149.333l-18.048-0.043c-80.597-0.256-156.459-0.576-213.504,56.491s-56.789,133.056-56.491,213.504l0.043,18.048    c0,5.888,4.779,10.667,10.667,10.667s10.667-4.779,10.667-10.667l-0.043-18.133c-0.299-79.189-0.533-147.563,50.24-198.336    c50.773-50.773,119.147-50.496,198.336-50.24l18.133,0.043c5.888,0,10.667-4.779,10.667-10.667S443.221,149.333,437.333,149.333z" fill="#FFFFFF"/>
</svg>