<svg xmlns="http://www.w3.org/2000/svg" xmlns:xlink="http://www.w3.org/1999/xlink" version="1.1" id="Layer_1" x="0px" y="0px" viewBox="0 0 512 512" style="enable-background:new 0 0 512 512;" xml:space="preserve">
    <path d="M350.871,221.348L15.816,22.409c-3.591-2.136-8.119-1.928-11.501,0.534c-3.385,2.459-4.979,6.695-4.057,10.775    l73.293,324.585c0.864,3.829,3.799,6.853,7.6,7.834c0.864,0.223,1.741,0.331,2.612,0.331c2.95,0,5.813-1.249,7.825-3.515    l81.346-91.512l174.412-30.779c4.31-0.76,7.694-4.123,8.479-8.431C356.612,227.925,354.636,223.583,350.871,221.348z     M165.707,251.452c-2.321,0.409-4.438,1.591-6.005,3.355l-70.218,78.992L26.041,52.835l289.871,172.11L165.707,251.452z" fill="#FFFFFF"/>
    <path d="M508.932,369.533l-25.649-25.649c-4.085-4.087-10.721-4.087-14.806,0c-4.09,4.09-4.09,10.718,0,14.808l7.774,7.775    h-67.903v-67.903l7.776,7.776c2.043,2.044,4.724,3.066,7.403,3.066c2.679,0,5.361-1.022,7.403-3.066    c4.09-4.09,4.09-10.718,0-14.808l-25.649-25.65c-4.085-4.087-10.721-4.087-14.806,0l-25.65,25.65c-4.09,4.09-4.09,10.718,0,14.808    c4.085,4.087,10.721,4.087,14.806,0l7.776-7.776v67.903h-67.903l7.774-7.775c4.09-4.09,4.09-10.718,0-14.808    c-4.085-4.087-10.721-4.087-14.806,0l-25.65,25.649c-4.09,4.09-4.09,10.718,0,14.808l25.65,25.649    c2.042,2.044,4.724,3.066,7.403,3.066c2.679,0,5.361-1.022,7.403-3.066c4.09-4.09,4.09-10.718,0-14.808l-7.774-7.775h67.903    v67.903l-7.776-7.776c-4.085-4.087-10.721-4.087-14.806,0c-4.09,4.09-4.09,10.718,0,14.808l25.65,25.65    c2.043,2.044,4.724,3.066,7.403,3.066c2.679,0,5.361-1.022,7.403-3.066l25.65-25.65c4.09-4.09,4.09-10.718,0-14.808    c-4.085-4.087-10.721-4.087-14.806,0l-7.776,7.776v-67.903h67.903l-7.774,7.775c-4.09,4.09-4.09,10.718,0,14.808    c2.042,2.044,4.724,3.066,7.403,3.066s5.361-1.022,7.403-3.066l25.649-25.649C513.022,380.252,513.022,373.623,508.932,369.533z" fill="#FFFFFF"/>
  </svg>